<svg xmlns="http://www.w3.org/2000/svg" xmlns:xlink="http://www.w3.org/1999/xlink" width="1920" zoomAndPan="magnify" viewBox="0 0 1440 397.499983" height="530" preserveAspectRatio="xMidYMid meet" version="1.0"><defs><g/><clipPath id="bd9fc11a9c"><path d="M 0.90625 0 L 1439.09375 0 L 1439.09375 397 L 0.90625 397 Z M 0.90625 0 " clip-rule="nonzero"/></clipPath><clipPath id="cbbc5a9d3d"><path d="M 123 7.875 L 421 7.875 L 421 122 L 123 122 Z M 123 7.875 " clip-rule="nonzero"/></clipPath><clipPath id="faf36d3553"><path d="M 166 349 L 199 349 L 199 389.144531 L 166 389.144531 Z M 166 349 " clip-rule="nonzero"/></clipPath><clipPath id="9a1bb4dd63"><path d="M 344 349 L 378 349 L 378 389.144531 L 344 389.144531 Z M 344 349 " clip-rule="nonzero"/></clipPath><clipPath id="474954255c"><path d="M 451 217 L 479.9375 217 L 479.9375 236 L 451 236 Z M 451 217 " clip-rule="nonzero"/></clipPath><clipPath id="cdeb164b93"><path d="M 62.714844 212 L 97 212 L 97 232 L 62.714844 232 Z M 62.714844 212 " clip-rule="nonzero"/></clipPath><clipPath id="616804d6fd"><rect x="0" width="467" y="0" height="323"/></clipPath></defs><g clip-path="url(#bd9fc11a9c)"><path fill="#ffffff" d="M 0.90625 0 L 1439.09375 0 L 1439.09375 397 L 0.90625 397 Z M 0.90625 0 " fill-opacity="1" fill-rule="nonzero"/><path fill="#ffffff" d="M 0.90625 0 L 1439.09375 0 L 1439.09375 397 L 0.90625 397 Z M 0.90625 0 " fill-opacity="1" fill-rule="nonzero"/></g><path fill="#ffffff" d="M 240.3125 121.015625 L 240.933594 121.015625 C 240.785156 120.964844 240.609375 120.945312 240.433594 120.890625 C 240.433594 120.890625 240.382812 120.992188 240.3125 121.015625 Z M 240.3125 121.015625 " fill-opacity="1" fill-rule="nonzero"/><g clip-path="url(#cbbc5a9d3d)"><path fill="#ffffff" d="M 402.703125 75.722656 C 347.347656 31.503906 319.546875 26.742188 305.535156 27.144531 C 291.554688 27.535156 299.074219 40.199219 299.074219 40.199219 C 308.25 55.550781 299.769531 56.964844 299.769531 56.964844 C 293.339844 58.097656 287.617188 51.304688 284.816406 47.984375 C 284.816406 47.984375 279.929688 41.9375 282.558594 27.460938 C 282.558594 27.460938 292.519531 30.609375 293.710938 26.46875 C 295.082031 21.808594 288.183594 22.03125 288.183594 22.03125 C 288.183594 22.03125 295.792969 21.214844 296.4375 16.679688 C 297.160156 11.519531 298.519531 8.941406 298.519531 8.941406 C 294.898438 12.859375 287.339844 15.960938 283.769531 15.886719 C 280.226562 15.808594 283.246094 7.875 283.246094 7.875 C 280.945312 9.144531 279.257812 10.675781 278.289062 11.765625 C 274.648438 15.902344 272.882812 15.4375 265.589844 14.871094 C 260.335938 14.472656 257.800781 18.761719 257.800781 18.761719 C 257.800781 18.761719 254.015625 17.449219 251.1875 17.796875 C 244.269531 18.65625 245.109375 22.824219 245.109375 22.824219 C 246.496094 21.859375 250.117188 21.167969 252.203125 21.339844 C 256.242188 21.632812 256.863281 22.523438 256.8125 23.917969 C 256.738281 26.546875 251.265625 25.878906 251.265625 25.878906 C 251.265625 25.878906 251.679688 26.570312 254.109375 27.238281 C 256.742188 27.964844 261.257812 26.773438 261.796875 31.507812 C 262.273438 35.640625 261.230469 44.171875 259.523438 47.964844 C 258.761719 49.644531 257.042969 51.757812 254.863281 53.492188 L 254.863281 53.519531 C 254.515625 53.789062 254.113281 54.09375 253.746094 54.355469 C 251.988281 55.746094 247.917969 60.488281 246.160156 64.867188 C 246.582031 62.0625 247.578125 59.167969 250.152344 56.3125 C 247.917969 57.378906 246.804688 57.351562 244.421875 56.964844 C 244.421875 56.964844 235.964844 55.550781 245.113281 40.199219 C 245.113281 40.199219 252.628906 27.535156 238.644531 27.144531 C 224.632812 26.746094 196.867188 31.507812 141.5 75.722656 C 130.566406 84.253906 116.292969 95.242188 126.871094 95.882812 C 126.871094 95.882812 131.785156 95.882812 139.761719 91.125 L 139.785156 91.125 C 142.273438 88.613281 161.605469 69.230469 166.433594 68.539062 C 166.433594 68.539062 161.132812 72.773438 143.925781 91.375 C 149.226562 91.992188 166.261719 93.160156 184.933594 80.339844 C 184.933594 80.339844 186.589844 79.273438 192.316406 76.617188 C 191.402344 77.285156 190.484375 78.085938 189.613281 78.953125 L 185.417969 83.1875 L 191.296875 82.171875 C 192.738281 81.929688 193.949219 81.777344 195.042969 81.757812 L 196.953125 84.3125 L 197.820312 91.382812 C 198.1875 93.015625 198.636719 94.898438 199.339844 96.683594 C 202.109375 103.84375 214.601562 121.347656 225.363281 121.347656 C 226.136719 121.347656 226.804688 121.320312 227.421875 121.304688 L 237.613281 121.082031 C 236.351562 120.855469 234.785156 120.355469 233.046875 119.414062 C 226.136719 115.644531 233.046875 119.414062 225.359375 119.414062 C 217.679688 119.414062 207.164062 107.339844 202.753906 99.386719 C 202.753906 99.363281 202.730469 99.335938 202.703125 99.335938 C 202.375 98.761719 202.128906 98.269531 201.886719 97.773438 C 201.859375 97.703125 201.808594 97.628906 201.785156 97.550781 C 201.53125 97.035156 201.308594 96.511719 201.117188 96.035156 C 200.464844 94.402344 200.078125 92.691406 199.671875 91.007812 C 202.648438 94.15625 210.878906 99.019531 211.746094 91.523438 C 212.390625 86.316406 204.382812 81.335938 199.875 80.296875 C 196.796875 79.601562 194.019531 79.796875 190.917969 80.339844 C 200.566406 70.5 212.484375 76.28125 222.234375 88.101562 C 226.445312 93.199219 238.183594 92.539062 235.003906 83.71875 C 233.269531 78.808594 228.234375 75.164062 223.347656 74.394531 C 223.277344 74.394531 223.128906 74.394531 223.054688 74.394531 C 223.128906 74.34375 223.179688 74.34375 223.230469 74.394531 C 235.824219 75.035156 245.960938 75.632812 253.277344 86.792969 C 253.183594 84.660156 252.804688 82.523438 252.265625 80.515625 C 250.003906 72.660156 250.570312 63.609375 260.886719 62.046875 C 256.601562 64.949219 260.570312 70.828125 264.652344 67.03125 C 266.9375 64.925781 267.628906 63.628906 266.886719 60.90625 C 266.34375 58.894531 266.042969 55.953125 264.503906 54.484375 C 271.617188 58.101562 274.515625 65.289062 269.5625 72.308594 C 268.570312 73.699219 266.019531 75.628906 266.660156 77.609375 C 267.328125 79.671875 269.414062 79.46875 271.023438 78.378906 C 273.179688 76.941406 275.371094 73.628906 274.589844 71.464844 C 277.351562 74.757812 276.628906 79.175781 275.785156 83.234375 C 281.5625 79.175781 288.429688 76.199219 295.71875 75.253906 C 299.738281 74.730469 304.269531 74.414062 308.285156 74.980469 C 310.695312 75.355469 314.265625 75.800781 316.398438 77.089844 C 308.21875 78.75 308.761719 83.308594 308.632812 85.171875 C 320.9375 88.394531 327.230469 79.914062 330.453125 73.890625 C 334.492188 81.726562 332.117188 87.84375 326.511719 92.78125 C 338.082031 82.746094 352.644531 87.203125 356.980469 94.964844 C 350.835938 93.773438 344.734375 96.070312 340.644531 100.492188 C 337.125 104.304688 328.644531 115.484375 321.824219 118.632812 C 321.605469 118.757812 321.375 118.808594 321.148438 118.910156 C 320.832031 119.035156 320.515625 119.164062 320.191406 119.25 C 320.066406 119.25 319.972656 119.308594 319.84375 119.308594 C 319.445312 119.398438 319.050781 119.476562 318.675781 119.476562 C 318.207031 119.476562 317.78125 119.527344 317.394531 119.527344 C 317.273438 119.527344 317.144531 119.527344 317.019531 119.550781 C 316.722656 119.550781 316.453125 119.550781 316.199219 119.550781 L 316.046875 119.550781 C 314.957031 119.601562 314.289062 119.652344 313.800781 119.652344 L 313.621094 119.652344 C 313.621094 119.652344 313.496094 119.652344 313.421875 119.652344 C 313.371094 119.652344 313.320312 119.652344 313.273438 119.652344 C 313.222656 119.652344 313.148438 119.652344 313.097656 119.628906 C 313.019531 119.628906 312.980469 119.628906 312.917969 119.578125 C 312.871094 119.578125 312.84375 119.578125 312.828125 119.578125 C 312.726562 119.527344 312.625 119.511719 312.53125 119.449219 L 312.453125 119.449219 C 312.355469 119.386719 312.277344 119.359375 312.15625 119.308594 C 312.15625 119.308594 312.132812 119.308594 312.105469 119.25 C 311.738281 119.082031 311.289062 118.835938 310.59375 118.464844 C 309.832031 118.066406 308.734375 117.566406 307.179688 116.847656 C 302.492188 114.847656 293.484375 119.308594 289.027344 116.847656 L 264.0625 117.324219 C 261.929688 118.828125 259.71875 119.921875 257.464844 120.714844 L 260.214844 120.644531 C 261.410156 120.820312 262.703125 120.59375 264.679688 119.234375 L 288.613281 118.785156 C 289.730469 119.285156 291.0625 119.511719 292.644531 119.511719 C 294.554688 119.511719 296.613281 119.1875 298.625 118.835938 C 299.945312 118.632812 301.277344 118.417969 302.523438 118.320312 L 305.5 118.359375 C 305.84375 118.433594 306.167969 118.503906 306.433594 118.632812 C 308.71875 119.621094 309.886719 120.273438 310.679688 120.695312 C 311.796875 121.261719 312.441406 121.609375 313.859375 121.609375 C 314.230469 121.609375 314.71875 121.609375 315.390625 121.558594 C 316.160156 121.507812 317.226562 121.457031 318.710938 121.433594 C 320.84375 121.355469 323.128906 120.339844 325.503906 118.703125 L 330.960938 118.804688 L 332.667969 112.410156 C 334.925781 110.050781 337.203125 107.421875 339.4375 104.800781 C 340.453125 103.605469 341.347656 102.574219 342.015625 101.847656 C 345.757812 97.789062 351.3125 95.878906 356.601562 96.871094 L 358.902344 97.335938 L 362.304688 98.972656 C 366.8125 89.976562 358.945312 83.28125 355.207031 80.605469 C 352.628906 78.871094 351.238281 76.523438 351.238281 76.523438 C 357.320312 79.324219 359.027344 80.429688 359.027344 80.429688 L 359.128906 80.429688 C 378.046875 93.417969 395.328125 92.039062 400.339844 91.46875 C 383.152344 72.84375 377.851562 68.628906 377.851562 68.628906 C 383 69.371094 404.699219 91.40625 404.777344 91.484375 C 412.488281 95.976562 417.191406 95.976562 417.191406 95.976562 C 427.804688 95.324219 413.53125 84.347656 402.585938 75.816406 L 402.6875 75.714844 Z M 268.207031 20.199219 C 267.503906 20.5625 266.539062 20.738281 265.253906 20.738281 C 265.179688 21.457031 264.601562 22.007812 263.886719 22.007812 C 263.167969 22.007812 262.578125 21.441406 262.5 20.738281 C 262.375 20.738281 262.246094 20.738281 262.175781 20.789062 C 261.804688 20.890625 261.558594 21.042969 261.433594 21.164062 C 261.308594 21.261719 261.210938 21.3125 261.058594 21.3125 L 260.933594 21.3125 C 260.933594 21.3125 260.714844 21.1875 260.679688 20.984375 C 260.640625 20.664062 260.910156 19.996094 261.707031 19.621094 C 262.203125 19.328125 262.914062 19.203125 263.910156 19.203125 C 264.285156 19.203125 264.628906 19.203125 265.027344 19.253906 L 265.59375 19.253906 C 266.539062 19.253906 267.261719 19.203125 267.726562 19.054688 C 268.125 18.953125 268.355469 18.777344 268.445312 18.65625 C 268.546875 18.585938 268.640625 18.464844 268.792969 18.464844 C 268.96875 18.464844 269.121094 18.617188 269.1875 18.808594 C 269.261719 19.179688 268.96875 19.847656 268.203125 20.226562 L 268.203125 20.203125 Z M 268.207031 20.199219 " fill-opacity="1" fill-rule="nonzero"/></g><path fill="#ffffff" d="M 240.019531 120.820312 C 239.71875 120.746094 239.441406 120.667969 239.148438 120.617188 C 239.464844 120.746094 239.738281 120.820312 240.019531 120.820312 Z M 240.019531 120.820312 " fill-opacity="1" fill-rule="nonzero"/><path fill="#ffffff" d="M 235.949219 117.996094 L 234.976562 118.394531 C 235.894531 118.808594 237.015625 119.433594 238.523438 120.253906 C 237.675781 119.578125 236.710938 118.246094 235.945312 117.996094 Z M 235.949219 117.996094 " fill-opacity="1" fill-rule="nonzero"/><path fill="#ffffff" d="M 238.523438 120.253906 C 238.71875 120.421875 238.972656 120.546875 239.171875 120.59375 L 238.800781 120.402344 C 238.800781 120.402344 238.621094 120.292969 238.527344 120.253906 Z M 238.523438 120.253906 " fill-opacity="1" fill-rule="nonzero"/><path fill="#ffffff" d="M 253.625 119.433594 L 246.460938 119.433594 C 246.1875 119.527344 242.34375 119.433594 242.042969 119.433594 C 241.828125 119.433594 241.328125 120.871094 240.019531 120.84375 C 240.660156 120.996094 241.277344 121.1875 241.75 121.359375 C 246.511719 122.011719 251.402344 121.296875 256.085938 119.433594 C 255.359375 119.328125 254.570312 119.308594 253.605469 119.433594 L 253.628906 119.433594 Z M 253.625 119.433594 " fill-opacity="1" fill-rule="nonzero"/><path fill="#ffffff" d="M 271.300781 350.792969 L 270.539062 350.792969 C 264.515625 350.792969 252.015625 350.792969 238.054688 345.015625 C 221.21875 338.050781 207.164062 324.839844 196.253906 305.757812 C 194.816406 303.675781 185.566406 288.597656 185.566406 252.875 L 185.566406 138.9375 C 185.761719 136.910156 185.589844 133.242188 184.648438 131.625 L 185.964844 125.96875 L 208.605469 110.777344 L 210.109375 109.636719 C 212.171875 111.691406 213.457031 112.164062 213.457031 112.164062 C 213.457031 112.214844 216.949219 114.695312 228.039062 114.695312 L 313.75 114.695312 C 324.832031 114.695312 329.542969 111.835938 329.566406 111.835938 C 329.566406 111.835938 331.792969 110.601562 333.007812 109.28125 L 333.160156 110.796875 L 355.796875 125.984375 L 357.105469 131.640625 C 356.167969 133.234375 356.015625 136.902344 356.167969 138.984375 L 356.167969 139.328125 L 356.191406 252.886719 C 356.191406 288.589844 346.941406 303.660156 345.527344 305.761719 C 319.792969 350.808594 284.5625 350.808594 271.25 350.808594 L 271.300781 350.78125 Z M 193.996094 139.535156 L 193.996094 252.894531 C 193.996094 287.523438 203.121094 300.914062 203.246094 301.058594 L 203.46875 301.429688 C 226.773438 342.335938 258.53125 342.335938 270.488281 342.335938 L 271.25 342.335938 C 284.316406 342.335938 314.917969 342.335938 338.25 301.429688 L 338.515625 301.015625 C 338.515625 301.015625 347.714844 287.527344 347.714844 252.867188 L 347.714844 139.507812 C 347.613281 138.292969 347.421875 134.671875 348.28125 131.15625 L 331.378906 119.75 C 328.402344 121.632812 323.101562 123.148438 313.730469 123.148438 L 228.019531 123.148438 C 218.640625 123.148438 213.335938 121.632812 210.359375 119.75 L 193.453125 131.15625 C 194.324219 134.671875 194.148438 138.292969 194.046875 139.507812 Z M 193.996094 139.535156 " fill-opacity="1" fill-rule="nonzero"/><path fill="#ffffff" d="M 204.585938 290.128906 C 203.894531 290.128906 203.214844 289.835938 202.777344 289.214844 C 202.078125 288.226562 202.324219 286.867188 203.292969 286.148438 C 203.488281 285.996094 225.011719 270.398438 233.933594 261.652344 C 260.882812 235.175781 275.363281 245.117188 279.160156 248.804688 C 279.628906 249.179688 280.867188 249.753906 282.429688 248.1875 C 284.691406 245.960938 286.84375 245.121094 288.949219 245.636719 C 291.035156 246.175781 292.570312 247.984375 293.484375 251.0625 C 294.753906 255.285156 297.402344 261.304688 305.707031 264.601562 C 314.929688 268.222656 321.402344 277.015625 322.289062 278.285156 C 323.019531 279.046875 329.613281 285.617188 339 285.128906 C 340.21875 285.050781 341.234375 285.964844 341.3125 287.203125 C 341.386719 288.421875 340.472656 289.4375 339.253906 289.515625 C 327.152344 290.15625 319.296875 281.503906 318.949219 281.109375 C 318.898438 281.058594 318.847656 280.984375 318.796875 280.90625 C 318.722656 280.804688 312.554688 272.011719 304.125 268.660156 C 296.539062 265.683594 291.699219 260.308594 289.273438 252.300781 C 288.785156 250.570312 288.105469 249.96875 287.855469 249.890625 C 287.589844 249.816406 286.792969 250.066406 285.554688 251.304688 C 282.011719 254.847656 277.96875 253.65625 276.15625 252.050781 C 263.632812 239.898438 241.371094 260.582031 237.011719 264.820312 C 227.886719 273.816406 206.785156 289.105469 205.890625 289.730469 C 205.5 290.023438 205.023438 290.144531 204.605469 290.144531 L 204.582031 290.121094 Z M 204.585938 290.128906 " fill-opacity="1" fill-rule="nonzero"/><path fill="#ffffff" d="M 347.449219 294.941406 C 347.175781 294.941406 346.898438 294.917969 346.609375 294.839844 C 263.476562 278.558594 198.121094 294.648438 197.46875 294.789062 C 195.214844 295.390625 192.902344 293.972656 192.316406 291.722656 C 191.75 289.464844 193.109375 287.152344 195.390625 286.582031 C 196.058594 286.40625 263.128906 269.796875 348.242188 286.511719 C 350.539062 286.988281 352.050781 289.214844 351.585938 291.496094 C 351.191406 293.53125 349.429688 294.917969 347.453125 294.9375 Z M 347.449219 294.941406 " fill-opacity="1" fill-rule="nonzero"/><path fill="#ffffff" d="M 236.367188 185.398438 L 252.476562 144.125 C 254.464844 144.226562 256.125 143.53125 256.648438 142.214844 C 256.871094 141.597656 256.824219 140.945312 256.570312 140.226562 L 256.597656 140.226562 L 254.09375 131.773438 L 246.382812 136.433594 C 246.382812 136.433594 246.203125 136.558594 246.109375 136.582031 L 246.058594 136.582031 C 245.664062 136.933594 245.367188 137.300781 245.1875 137.75 C 244.671875 139.058594 245.410156 140.675781 246.949219 141.960938 L 245.613281 145.363281 C 245.613281 145.363281 244.445312 147.890625 237.722656 145.292969 C 230.980469 142.65625 232.472656 136.589844 232.472656 136.589844 C 232.472656 136.589844 207.328125 142.363281 220.394531 167.628906 C 220.394531 167.628906 223.421875 162.175781 230.136719 164.777344 C 236.832031 167.402344 235.914062 170.308594 235.914062 170.308594 L 230.160156 184.933594 L 236.386719 185.359375 L 236.363281 185.410156 Z M 236.367188 185.398438 " fill-opacity="1" fill-rule="nonzero"/><path fill="#ffffff" d="M 223.796875 201.582031 L 211.644531 232.570312 C 211.054688 234.082031 211.824219 235.820312 213.328125 236.390625 C 214.847656 237.007812 216.585938 236.242188 217.175781 234.734375 L 228.984375 204.410156 L 223.796875 201.613281 Z M 223.796875 201.582031 " fill-opacity="1" fill-rule="nonzero"/><path fill="#ffffff" d="M 253.648438 146.671875 L 239.917969 182.046875 L 306.066406 182.046875 L 316.304688 146.671875 Z M 289.082031 172.65625 L 281.792969 168.417969 L 282.960938 177.1875 L 266.390625 177.1875 L 273.730469 168.417969 L 263.476562 172.65625 L 269.320312 156.066406 L 276.609375 160.328125 L 275.425781 151.527344 L 292.007812 151.527344 L 284.667969 160.328125 L 294.9375 156.066406 Z M 289.082031 172.65625 " fill-opacity="1" fill-rule="nonzero"/><path fill="#ffffff" d="M 312.898438 212.421875 L 331.917969 203.996094 L 318.503906 181.4375 L 300.113281 195.617188 C 301.703125 198.421875 307.304688 208.105469 312.878906 212.425781 L 312.90625 212.425781 Z M 312.898438 212.421875 " fill-opacity="1" fill-rule="nonzero"/><path fill="#ffffff" d="M 230.445312 202.527344 C 230.496094 202.671875 231.433594 205.902344 238.082031 204.910156 L 244.152344 199.359375 C 243.382812 198.042969 241.898438 195.238281 241.277344 192.386719 C 240.253906 187.976562 239.050781 186.460938 236.472656 186.417969 C 235.433594 186.367188 234.289062 186.292969 233.171875 186.222656 C 230.917969 186.070312 227.847656 185.847656 227.078125 186.417969 C 226.308594 186.984375 226.164062 187.289062 226.128906 187.355469 C 226.128906 187.355469 226.234375 187.480469 226.476562 187.652344 C 226.875 187.949219 228.710938 188.320312 229.953125 188.597656 C 233.046875 189.25 234.691406 189.640625 235.257812 190.679688 C 235.480469 191.054688 235.523438 191.472656 235.402344 191.898438 L 235.328125 192.089844 C 234.878906 193.554688 233.421875 197.890625 236.789062 202.359375 L 234.953125 203.746094 C 234.4375 203.027344 234.007812 202.359375 233.660156 201.664062 C 232.527344 202.035156 231.480469 202.304688 230.488281 202.480469 L 230.488281 202.605469 L 230.515625 202.605469 L 230.4375 202.53125 Z M 230.445312 202.527344 " fill-opacity="1" fill-rule="nonzero"/><path fill="#ffffff" d="M 276.753906 218.265625 C 280.398438 216.855469 292.230469 211.796875 301.53125 202.375 C 300.085938 200.125 298.953125 198.164062 298.277344 196.996094 L 292.574219 201.433594 C 291.191406 202.324219 282.085938 208.378906 275.417969 211.355469 C 275.496094 212.023438 275.789062 214.824219 276.78125 218.265625 Z M 276.753906 218.265625 " fill-opacity="1" fill-rule="nonzero"/><path fill="#ffffff" d="M 282.429688 232.597656 C 275.34375 226.566406 273.585938 215.519531 273.207031 212.296875 C 272.242188 212.613281 271.394531 212.863281 270.652344 212.960938 C 270.304688 214.59375 269.859375 216.1875 269.335938 217.671875 C 267.382812 224.269531 263.859375 229.128906 261.332031 231.996094 C 262.941406 233.265625 266.761719 235.796875 271.988281 235.796875 C 275.414062 235.796875 278.933594 234.703125 282.429688 232.597656 Z M 282.429688 232.597656 " fill-opacity="1" fill-rule="nonzero"/><path fill="#ffffff" d="M 302.835938 204.359375 C 293.070312 214.109375 281.074219 219.09375 277.457031 220.476562 C 278.792969 224.347656 280.949219 228.585938 284.46875 231.257812 C 284.519531 231.234375 284.542969 231.183594 284.613281 231.140625 C 296.589844 222.464844 307.027344 215.917969 310.722656 213.636719 C 307.871094 211.183594 305.066406 207.640625 302.832031 204.367188 Z M 302.835938 204.359375 " fill-opacity="1" fill-rule="nonzero"/><path fill="#ffffff" d="M 257.59375 232.570312 C 257.941406 232.222656 258.429688 231.753906 258.972656 231.136719 C 259.851562 230.070312 264.527344 224.242188 267.160156 216.90625 C 267.726562 215.042969 268.125 213.011719 268.316406 210.851562 C 264.875 210.207031 253.890625 207.757812 245.636719 201.113281 L 239.9375 206.335938 C 241.179688 209.664062 247.054688 224.3125 257.5625 232.566406 L 257.585938 232.566406 Z M 257.59375 232.570312 " fill-opacity="1" fill-rule="nonzero"/><path fill="#ffffff" d="M 232.5 198.414062 C 232.425781 198.039062 232.351562 197.695312 232.351562 197.347656 C 231.785156 197.523438 231.039062 197.59375 230.21875 197.59375 C 227.789062 197.59375 224.613281 196.894531 222.878906 195.851562 C 222.851562 196.375 222.953125 196.992188 223.300781 197.367188 C 225.226562 199.347656 230.140625 198.949219 232.5 198.40625 Z M 232.5 198.414062 " fill-opacity="1" fill-rule="nonzero"/><path fill="#ffffff" d="M 225.191406 200.617188 C 226.234375 201.390625 228.484375 201.960938 233.074219 200.4375 C 232.972656 200.171875 232.875 199.921875 232.773438 199.671875 C 231.789062 199.898438 230.175781 200.144531 228.4375 200.144531 C 227.003906 200.144531 225.484375 200 224.253906 199.480469 C 224.453125 199.875 224.722656 200.273438 225.199219 200.609375 Z M 225.191406 200.617188 " fill-opacity="1" fill-rule="nonzero"/><path fill="#ffffff" d="M 225.117188 189.507812 C 224.792969 189.316406 224.539062 189.039062 224.34375 188.789062 C 224.101562 188.890625 223.828125 189.011719 223.675781 189.203125 C 223.449219 189.503906 223.449219 189.933594 223.625 190.5 C 224.074219 192.003906 229.859375 193.296875 232.558594 193.476562 C 232.683594 192.78125 232.875 192.179688 232.996094 191.742188 C 232.230469 191.441406 230.546875 191.070312 229.453125 190.851562 C 227.246094 190.375 225.859375 190.058594 225.117188 189.539062 Z M 225.117188 189.507812 " fill-opacity="1" fill-rule="nonzero"/><path fill="#ffffff" d="M 232.253906 196.007812 L 232.253906 196.058594 C 232.253906 195.59375 232.304688 195.167969 232.355469 194.769531 C 230.171875 194.628906 225.039062 193.757812 223.085938 191.929688 C 222.734375 192.722656 222.417969 193.761719 222.90625 194.328125 C 224.101562 195.769531 230.546875 196.925781 232.253906 196.011719 Z M 232.253906 196.007812 " fill-opacity="1" fill-rule="nonzero"/><path fill="#ffffff" d="M 200.21875 366.410156 L 194.34375 373.453125 C 198.433594 375.441406 200.839844 376.40625 200.839844 376.40625 L 204.585938 368.226562 C 202.992188 367.554688 201.558594 367.011719 200.214844 366.410156 Z M 200.21875 366.410156 " fill-opacity="1" fill-rule="nonzero"/><path fill="#ffffff" d="M 190.375 361.953125 C 190.179688 361.851562 190.003906 361.65625 189.960938 361.4375 C 189.886719 361.238281 189.902344 360.984375 190.027344 360.785156 L 196.625 349.261719 L 178.578125 365 C 184.132812 368.320312 188.960938 370.875 192.730469 372.734375 L 198.558594 365.765625 C 193.453125 363.582031 190.453125 362.046875 190.355469 361.996094 L 190.382812 361.945312 Z M 190.375 361.953125 " fill-opacity="1" fill-rule="nonzero"/><g clip-path="url(#faf36d3553)"><path fill="#ffffff" d="M 190.375 361.953125 C 190.179688 361.851562 190.003906 361.65625 189.960938 361.4375 C 189.886719 361.238281 189.902344 360.984375 190.027344 360.785156 L 196.625 349.261719 L 169.253906 373.128906 L 166.003906 389.144531 L 182.546875 384.835938 L 198.582031 365.742188 C 193.476562 363.5625 190.476562 362.023438 190.371094 361.976562 L 190.371094 361.953125 Z M 190.375 361.953125 " fill-opacity="1" fill-rule="nonzero"/></g><g clip-path="url(#9a1bb4dd63)"><path fill="#ffffff" d="M 373.746094 373.105469 L 346.375 349.234375 L 352.972656 360.785156 C 353.089844 360.984375 353.089844 361.207031 353.046875 361.4375 C 352.972656 361.664062 352.820312 361.855469 352.625 361.953125 C 352.523438 362 349.546875 363.53125 344.46875 365.746094 L 360.476562 384.816406 L 377.023438 389.125 L 373.765625 373.085938 L 373.742188 373.109375 Z M 373.746094 373.105469 " fill-opacity="1" fill-rule="nonzero"/></g><path fill="#ffffff" d="M 339.234375 367.925781 L 342.585938 375.289062 C 343.546875 374.863281 345.460938 374.019531 348.089844 372.761719 L 342.835938 366.433594 C 341.722656 366.933594 340.527344 367.398438 339.234375 367.925781 Z M 339.234375 367.925781 " fill-opacity="1" fill-rule="nonzero"/><path fill="#ffffff" d="M 215.640625 332.667969 L 209.683594 337.855469 C 211.84375 338.996094 214.796875 340.453125 218.441406 342.023438 L 222.058594 337.683594 L 215.613281 332.652344 L 215.640625 332.675781 Z M 215.640625 332.667969 " fill-opacity="1" fill-rule="nonzero"/><path fill="#ffffff" d="M 326.992188 332.351562 L 320.585938 337.3125 L 324.582031 342.0625 C 328.25 340.484375 331.203125 339.023438 333.324219 337.878906 L 326.988281 332.351562 Z M 326.992188 332.351562 " fill-opacity="1" fill-rule="nonzero"/><path fill="#ffffff" d="M 139.382812 305.457031 L 136.773438 302.28125 L 133.230469 305.207031 L 135.859375 308.386719 C 136.949219 309.71875 138.320312 309.542969 139.183594 308.824219 C 140.074219 308.082031 140.46875 306.769531 139.382812 305.429688 Z M 139.382812 305.457031 " fill-opacity="1" fill-rule="nonzero"/><path fill="#ffffff" d="M 124.621094 264.894531 L 104.34375 289.492188 C 123.878906 326.878906 155.398438 350.921875 177.058594 364.0625 L 199.246094 344.703125 L 201.183594 341.328125 C 152.988281 318.402344 124.621094 264.902344 124.621094 264.902344 Z M 116.894531 295.4375 L 125.351562 282.359375 L 127.082031 284.835938 L 120.335938 294.75 L 132.015625 291.96875 L 133.730469 294.457031 L 118.476562 297.75 L 116.867188 295.441406 L 116.894531 295.441406 Z M 122.914062 303.75 L 134.320312 295.066406 L 135.953125 297.199219 L 124.546875 305.902344 L 122.914062 303.769531 L 122.914062 303.746094 Z M 134.121094 317.480469 L 134.003906 317.582031 L 131.945312 315.105469 L 132.976562 308.800781 L 131.320312 306.796875 L 127.597656 309.839844 L 125.886719 307.757812 L 136.96875 298.609375 C 138.4375 300.34375 139.847656 302.136719 141.3125 303.898438 C 143.433594 306.5 142.84375 309.324219 140.914062 310.90625 C 139.433594 312.148438 137.320312 312.742188 135.136719 310.984375 L 134.121094 317.503906 L 134.121094 317.476562 Z M 137.621094 321.476562 L 146.316406 313.386719 L 143.210938 310.023438 L 145.007812 308.363281 C 147.859375 311.390625 150.234375 313.964844 153.085938 317.015625 L 151.273438 318.699219 L 148.171875 315.375 L 139.476562 323.476562 L 137.632812 321.476562 L 137.617188 321.476562 Z M 148.402344 332.898438 C 145.925781 330.546875 145.203125 326.976562 148.179688 323.851562 L 153.808594 317.871094 L 155.769531 319.707031 L 150.140625 325.710938 C 148.382812 327.570312 148.484375 329.582031 150.117188 331.136719 C 151.761719 332.652344 153.710938 332.429688 155.378906 330.671875 L 161.03125 324.667969 L 162.980469 326.527344 L 157.324219 332.507812 C 154.433594 335.609375 151.03125 335.410156 148.402344 332.933594 Z M 158.003906 341.007812 L 165.511719 331.78125 L 161.96875 328.910156 L 163.53125 327.003906 C 166.726562 329.632812 169.425781 331.839844 172.679688 334.488281 L 171.117188 336.394531 L 167.601562 333.519531 L 160.066406 342.742188 L 157.980469 341.007812 L 158.007812 341.007812 Z M 180.414062 343.1875 L 173.816406 338.550781 L 171.90625 341.25 L 178.257812 345.742188 L 176.816406 347.800781 L 170.464844 343.28125 L 168.605469 345.9375 L 175.175781 350.59375 L 173.671875 352.753906 L 164.890625 346.609375 C 167.640625 342.691406 170.394531 338.742188 173.15625 334.851562 L 181.957031 341.054688 L 180.445312 343.179688 L 180.417969 343.179688 Z M 180.414062 343.1875 " fill-opacity="1" fill-rule="nonzero"/><path fill="#ffffff" d="M 222.140625 354.808594 L 218.34375 353.371094 L 216.535156 358.105469 L 220.332031 359.570312 C 223.574219 360.804688 225.359375 356.042969 222.140625 354.808594 Z M 222.140625 354.808594 " fill-opacity="1" fill-rule="nonzero"/><path fill="#ffffff" d="M 271.25 363.316406 C 267.851562 363.316406 266.464844 365.988281 266.488281 368.390625 C 266.515625 370.75 268.054688 373.300781 271.148438 373.300781 C 274.425781 373.328125 276.011719 370.625 275.910156 368.171875 C 275.808594 365.835938 274.652344 363.335938 271.25 363.285156 Z M 271.25 363.316406 " fill-opacity="1" fill-rule="nonzero"/><path fill="#ffffff" d="M 298.851562 368.242188 L 304.105469 367.28125 L 300.359375 361.75 Z M 298.851562 368.242188 " fill-opacity="1" fill-rule="nonzero"/><path fill="#ffffff" d="M 337.621094 337.433594 C 332.9375 340.28125 307.226562 354.785156 271.496094 354.785156 C 235.765625 354.785156 210.109375 340.261719 205.398438 337.433594 L 191.984375 360.839844 C 197.785156 363.714844 234.234375 380.765625 271.496094 380.765625 C 308.765625 380.765625 345.335938 363.71875 351.035156 360.839844 Z M 219.433594 361.921875 L 215.640625 360.441406 L 214.125 364.382812 L 211.597656 363.417969 L 216.738281 350.023438 C 218.859375 350.84375 220.972656 351.609375 223.078125 352.425781 C 229.625 354.960938 226.007812 364.421875 219.433594 361.921875 Z M 234.511719 371.070312 L 224.789062 368.320312 L 228.707031 354.511719 L 231.308594 355.253906 L 228.105469 366.660156 L 235.199219 368.667969 L 234.535156 371.070312 L 234.507812 371.070312 Z M 241.828125 372.914062 C 238.457031 372.234375 236 369.613281 236.8125 365.394531 L 238.398438 357.316406 L 241.035156 357.816406 L 239.464844 365.898438 C 238.953125 368.425781 240.144531 370.058594 242.316406 370.507812 C 244.527344 370.933594 246.039062 369.6875 246.539062 367.289062 L 248.121094 359.203125 L 250.75 359.726562 L 249.167969 367.808594 C 248.347656 371.96875 245.371094 373.585938 241.828125 372.894531 L 241.828125 372.917969 Z M 257.320312 366.019531 C 260.246094 366.6875 262.976562 367.753906 262.605469 371.144531 C 262.277344 374.347656 259.324219 375.414062 256.136719 375.089844 C 253.210938 374.792969 251.078125 373.679688 250.285156 370.945312 L 252.632812 370.011719 C 253.109375 371.671875 254.691406 372.539062 256.429688 372.710938 C 258.113281 372.851562 259.75 372.414062 259.898438 370.875 C 260.050781 369.511719 258.6875 368.820312 256.828125 368.421875 C 253.953125 367.777344 251.324219 366.707031 251.644531 363.519531 C 251.941406 360.59375 254.96875 359.675781 257.597656 359.894531 C 259.820312 360.140625 262.082031 361.035156 262.925781 363.320312 L 260.671875 364.191406 C 260.269531 363.320312 258.976562 362.429688 257.445312 362.253906 C 255.4375 362.050781 254.394531 362.769531 254.316406 363.835938 C 254.175781 365.078125 255.609375 365.570312 257.320312 365.949219 L 257.320312 366.023438 Z M 276.980469 376.457031 L 275.246094 374.710938 C 274.132812 375.441406 272.761719 375.753906 271.152344 375.753906 C 266.046875 375.675781 263.839844 371.957031 263.839844 368.25 C 263.839844 364.527344 266.25 360.765625 271.28125 360.804688 C 276.339844 360.855469 278.578125 364.5 278.59375 368.222656 C 278.59375 369.859375 278.15625 371.542969 277.210938 372.886719 L 278.917969 374.597656 Z M 287.121094 375.21875 C 283.699219 375.515625 280.601562 373.6875 280.230469 369.390625 L 279.480469 361.214844 L 282.1875 360.992188 L 282.90625 369.167969 C 283.109375 371.730469 284.691406 372.984375 286.917969 372.773438 C 289.152344 372.570312 290.296875 370.953125 290.066406 368.527344 L 289.351562 360.34375 L 292.003906 360.097656 L 292.722656 368.273438 C 293.097656 372.492188 290.683594 374.894531 287.121094 375.21875 Z M 307.324219 371.921875 L 305.640625 369.464844 L 298.25 370.832031 L 297.535156 373.707031 L 294.65625 374.253906 L 298.378906 358.953125 L 301.277344 358.414062 L 310.199219 371.375 L 307.308594 371.890625 L 307.324219 371.925781 Z M 323.492188 367.652344 L 320.59375 357.640625 L 317.816406 364.953125 L 317.328125 365.105469 L 311.175781 360.371094 L 314.078125 370.40625 L 311.480469 371.148438 L 307.484375 357.367188 L 310.464844 356.5 L 316.492188 361.183594 L 319.089844 353.996094 L 322.070312 353.128906 L 326.050781 366.933594 L 323.453125 367.675781 L 323.503906 367.652344 Z M 323.492188 367.652344 " fill-opacity="1" fill-rule="nonzero"/><path fill="#ffffff" d="M 403.445312 303.296875 C 401.242188 305.847656 402.328125 308.699219 404.195312 310.238281 C 406.019531 311.746094 408.757812 312.4375 410.984375 309.917969 C 413.21875 307.363281 412.125 304.734375 410.390625 303.148438 C 408.609375 301.511719 405.679688 300.773438 403.445312 303.296875 Z M 403.445312 303.296875 " fill-opacity="1" fill-rule="nonzero"/><path fill="#ffffff" d="M 379.550781 335.277344 L 373.722656 332.050781 L 375.339844 338.519531 Z M 379.550781 335.277344 " fill-opacity="1" fill-rule="nonzero"/><path fill="#ffffff" d="M 394.921875 312.894531 L 391.972656 315.792969 L 395.21875 319.0625 L 398.144531 316.136719 C 399.386719 314.957031 399.109375 313.585938 398.292969 312.792969 C 397.496094 311.976562 396.160156 311.675781 394.949219 312.917969 L 394.914062 312.894531 Z M 394.921875 312.894531 " fill-opacity="1" fill-rule="nonzero"/><path fill="#ffffff" d="M 418.546875 266.414062 C 414.113281 274.292969 385.894531 321.6875 341.265625 342.515625 L 365.238281 363.386719 C 386.789062 350.347656 418.246094 326.402344 437.667969 289.585938 L 418.546875 266.40625 Z M 384.582031 338.03125 L 381.976562 336.621094 L 376.007812 341.207031 L 376.671875 344.097656 L 374.335938 345.890625 L 370.695312 330.542969 L 373.027344 328.757812 L 386.886719 336.21875 L 384.539062 338.027344 L 384.589844 338.027344 Z M 391.96875 332.203125 C 389.359375 334.464844 385.769531 334.808594 382.941406 331.535156 L 377.539062 325.367188 L 379.59375 323.597656 L 384.972656 329.804688 C 386.679688 331.765625 388.664062 331.839844 390.375 330.371094 C 392.089844 328.910156 392.042969 326.949219 390.429688 325.066406 L 385.023438 318.890625 L 387.054688 317.132812 L 392.457031 323.335938 C 395.234375 326.527344 394.691406 329.90625 391.992188 332.253906 Z M 405.1875 319.464844 L 398.832031 319.011719 L 396.996094 320.824219 L 400.347656 324.25 L 398.414062 326.148438 L 388.324219 315.921875 C 389.90625 314.328125 391.570312 312.742188 393.203125 311.132812 C 395.613281 308.773438 398.488281 309.097656 400.222656 310.882812 C 401.613281 312.277344 402.355469 314.324219 400.8125 316.636719 L 407.359375 317.050781 L 407.507812 317.203125 L 405.195312 319.464844 L 405.179688 319.464844 Z M 412.890625 311.574219 C 409.566406 315.371094 405.308594 314.726562 402.453125 312.242188 C 399.632812 309.765625 398.34375 305.457031 401.617188 301.734375 C 404.886719 298.015625 409.347656 298.660156 412.152344 301.132812 C 414.902344 303.621094 416.21875 307.753906 412.894531 311.574219 Z M 412.890625 311.574219 " fill-opacity="1" fill-rule="nonzero"/><path fill="#ffffff" d="M 352.75 278.035156 C 361.054688 276.96875 372.183594 268.792969 390.730469 253.523438 C 408.558594 238.792969 409.472656 192.089844 404.9375 172.214844 C 400.277344 151.761719 396.773438 130.070312 396.761719 129.847656 L 398.441406 129.503906 C 399.980469 135.648438 411.382812 170.746094 411.507812 171.171875 C 418.351562 199.109375 413.269531 229.726562 411.851562 237.109375 C 414.628906 235.953125 417.480469 235.324219 420.53125 234.683594 C 422.753906 234.210938 425.015625 233.714844 427.375 232.964844 C 432.429688 231.382812 439.097656 228.855469 445.691406 223.625 C 451.019531 219.40625 457.691406 215.375 457.769531 215.296875 L 462.300781 212.539062 L 458.859375 216.582031 C 443.910156 234.007812 431.890625 238.324219 424.121094 240.03125 C 417.035156 241.617188 405.574219 251.785156 382.75 272.089844 L 379.621094 274.886719 C 359.984375 292.3125 347.984375 293.203125 349.445312 286.960938 C 350.210938 283.738281 352.972656 282.125 352.921875 282.125 L 353.5625 280.957031 L 352.75 278.007812 Z M 352.75 278.035156 " fill-opacity="1" fill-rule="nonzero"/><path fill="#ffffff" d="M 405.480469 275.832031 C 404.886719 274.367188 403.617188 272.0625 401.046875 271.046875 L 401.019531 271.046875 C 399.652344 270.472656 398.347656 270.519531 397.324219 270.699219 C 397.777344 269.136719 397.890625 267.128906 396.925781 265.398438 C 399.261719 264.152344 402.1875 264.253906 404.414062 265.914062 C 407.441406 268.222656 407.957031 272.628906 405.582031 275.707031 C 405.582031 275.757812 405.503906 275.777344 405.503906 275.808594 Z M 405.480469 275.832031 " fill-opacity="1" fill-rule="nonzero"/><path fill="#ffffff" d="M 396.160156 272.785156 L 396.359375 272.683594 C 396.359375 272.683594 398.347656 271.746094 400.429688 272.582031 C 403.160156 273.648438 404.148438 275.660156 404.277344 277.371094 C 404.097656 278.925781 403.453125 280.5625 402.335938 282.054688 C 399.65625 285.570312 395.25 286.714844 392.492188 284.605469 C 390.8125 283.347656 390.167969 281.140625 390.480469 278.828125 C 391.007812 276.828125 393.460938 274.078125 396.160156 272.785156 Z M 396.160156 272.785156 " fill-opacity="1" fill-rule="nonzero"/><path fill="#ffffff" d="M 385.820312 267.359375 C 388.105469 264.355469 392.050781 263.535156 394.796875 265.347656 C 396.882812 267.308594 395.765625 270.457031 395.363281 271.351562 C 392.335938 272.8125 389.886719 276.601562 389.121094 277.886719 C 388.175781 277.738281 387.261719 277.371094 386.488281 276.777344 C 383.738281 274.671875 383.445312 270.460938 385.820312 267.332031 Z M 385.820312 267.359375 " fill-opacity="1" fill-rule="nonzero"/><path fill="#ffffff" d="M 390.53125 166.710938 C 390.90625 165.792969 391.699219 164.347656 393.3125 163.683594 C 394.183594 163.332031 394.996094 163.355469 395.621094 163.480469 C 395.351562 162.488281 395.273438 161.257812 395.875 160.160156 C 394.378906 159.367188 392.574219 159.417969 391.191406 160.476562 C 389.292969 161.945312 388.957031 164.699219 390.445312 166.632812 C 390.445312 166.683594 390.488281 166.683594 390.511719 166.710938 L 390.539062 166.710938 Z M 390.53125 166.710938 " fill-opacity="1" fill-rule="nonzero"/><path fill="#ffffff" d="M 396.386719 164.800781 L 396.234375 164.722656 C 396.234375 164.722656 394.976562 164.121094 393.707031 164.648438 L 393.683594 164.648438 C 391.96875 165.316406 391.347656 166.609375 391.269531 167.648438 C 391.398438 168.636719 391.769531 169.675781 392.488281 170.574219 C 394.171875 172.800781 396.945312 173.496094 398.644531 172.214844 C 399.6875 171.394531 400.125 170.03125 399.902344 168.59375 C 399.582031 167.324219 398.042969 165.59375 396.335938 164.773438 Z M 396.386719 164.800781 " fill-opacity="1" fill-rule="nonzero"/><path fill="#ffffff" d="M 402.882812 161.371094 C 401.433594 159.511719 398.964844 158.996094 397.226562 160.140625 C 395.914062 161.371094 396.632812 163.308594 396.851562 163.882812 C 398.746094 164.773438 400.277344 167.175781 400.746094 167.992188 C 401.363281 167.925781 401.914062 167.675781 402.40625 167.300781 C 404.148438 165.992188 404.347656 163.308594 402.855469 161.371094 Z M 402.882812 161.371094 " fill-opacity="1" fill-rule="nonzero"/><path fill="#ffffff" d="M 400.074219 111.097656 C 404.8125 107.953125 406.347656 103.910156 406.347656 103.910156 C 406.347656 103.910156 405.882812 108.207031 408.632812 113.210938 C 412.03125 119.359375 411.902344 126.148438 406.171875 130.316406 C 406.171875 130.316406 402.550781 132.71875 399.507812 131.972656 C 396.480469 131.257812 394.375 127.441406 394.375 127.441406 C 391.203125 121.113281 394.246094 115.019531 400.074219 111.125 Z M 400.074219 111.097656 " fill-opacity="1" fill-rule="nonzero"/><path fill="#ffffff" d="M 421.453125 130.113281 C 429.832031 128.152344 434.125 123.246094 434.125 123.246094 C 434.125 123.246094 431.195312 129.074219 432.429688 137.578125 C 433.972656 148.039062 430.199219 157.636719 419.941406 160.425781 C 419.941406 160.425781 413.546875 161.945312 409.628906 159.269531 C 405.730469 156.617188 404.742188 150.148438 404.742188 150.148438 C 403.597656 139.558594 411.113281 132.539062 421.453125 130.140625 Z M 421.453125 130.113281 " fill-opacity="1" fill-rule="nonzero"/><path fill="#ffffff" d="M 432.210938 165.441406 C 439.425781 166.132812 444.160156 163.382812 444.160156 163.382812 C 444.160156 163.382812 440.265625 167.253906 439 174.371094 C 437.46875 183.164062 431.914062 189.761719 422.941406 189.285156 C 422.941406 189.285156 417.433594 188.71875 415.007812 185.566406 C 412.605469 182.398438 413.546875 176.949219 413.546875 176.949219 C 415.457031 168.195312 423.3125 164.628906 432.210938 165.464844 Z M 432.210938 165.441406 " fill-opacity="1" fill-rule="nonzero"/><path fill="#ffffff" d="M 384.511719 146.777344 C 384.039062 142.136719 381.738281 139.464844 381.738281 139.464844 C 381.738281 139.464844 384.628906 141.476562 389.289062 141.425781 C 395.046875 141.347656 399.902344 144.023438 400.699219 149.726562 C 400.699219 149.726562 401.050781 153.246094 399.3125 155.179688 C 397.605469 157.113281 394.054688 157.140625 394.054688 157.140625 C 388.277344 156.992188 385.046875 152.457031 384.480469 146.75 L 384.507812 146.777344 Z M 384.511719 146.777344 " fill-opacity="1" fill-rule="nonzero"/><path fill="#ffffff" d="M 379.800781 183.933594 C 379.035156 176.054688 375.089844 171.546875 375.089844 171.546875 C 375.089844 171.546875 380.023438 174.9375 387.929688 174.835938 C 397.679688 174.710938 405.960938 179.296875 407.292969 188.992188 C 407.292969 188.992188 407.871094 194.984375 404.992188 198.242188 C 402.09375 201.484375 396.0625 201.582031 396.0625 201.582031 C 386.25 201.328125 380.796875 193.652344 379.800781 183.957031 Z M 379.800781 183.933594 " fill-opacity="1" fill-rule="nonzero"/><path fill="#ffffff" d="M 429.808594 202.132812 C 437.34375 198.832031 440.589844 193.503906 440.589844 193.503906 C 440.589844 193.503906 438.804688 199.484375 441.46875 207.261719 C 444.738281 216.859375 442.878906 226.476562 433.679688 230.890625 C 433.679688 230.890625 427.925781 233.390625 423.785156 231.554688 C 419.617188 229.722656 417.578125 223.792969 417.578125 223.792969 C 414.679688 214.007812 420.507812 206.171875 429.808594 202.132812 Z M 429.808594 202.132812 " fill-opacity="1" fill-rule="nonzero"/><path fill="#ffffff" d="M 456.605469 200.539062 C 459.984375 198.3125 461.050781 195.4375 461.050781 195.4375 C 461.050781 195.4375 460.699219 198.488281 462.65625 202.007812 C 465.03125 206.367188 464.957031 211.179688 460.921875 214.128906 C 460.921875 214.128906 458.359375 215.839844 456.210938 215.324219 C 454.054688 214.796875 452.566406 212.074219 452.566406 212.074219 C 450.332031 207.617188 452.464844 203.304688 456.601562 200.539062 Z M 456.605469 200.539062 " fill-opacity="1" fill-rule="nonzero"/><g clip-path="url(#474954255c)"><path fill="#ffffff" d="M 472.699219 224.71875 C 475.847656 229.421875 479.914062 230.9375 479.914062 230.9375 C 479.914062 230.9375 475.652344 230.464844 470.667969 233.214844 C 464.570312 236.640625 457.804688 236.5625 453.617188 230.914062 C 453.617188 230.914062 451.207031 227.296875 451.898438 224.269531 C 452.628906 221.214844 456.394531 219.109375 456.394531 219.109375 C 462.691406 215.914062 468.789062 218.917969 472.679688 224.691406 L 472.703125 224.71875 Z M 472.699219 224.71875 " fill-opacity="1" fill-rule="nonzero"/></g><path fill="#ffffff" d="M 438.875 250.523438 C 442.199219 256.796875 447.011719 259.207031 447.011719 259.207031 C 447.011719 259.207031 441.75 258.039062 435.230469 260.839844 C 427.199219 264.28125 418.773438 263.289062 414.359375 255.703125 C 414.359375 255.703125 411.800781 250.917969 413.117188 247.25 C 414.4375 243.554688 419.390625 241.429688 419.390625 241.429688 C 427.617188 238.277344 434.789062 242.816406 438.875 250.523438 Z M 438.875 250.523438 " fill-opacity="1" fill-rule="nonzero"/><path fill="#ffffff" d="M 387.484375 214.625 C 385.816406 209.671875 382.628906 207.335938 382.628906 207.335938 C 382.628906 207.335938 386.296875 208.804688 391.351562 207.585938 C 397.605469 206.019531 403.597656 207.761719 405.910156 213.808594 C 405.910156 213.808594 407.175781 217.601562 405.761719 220.078125 C 404.390625 222.609375 400.535156 223.554688 400.535156 223.554688 C 394.183594 224.839844 389.523438 220.730469 387.46875 214.625 L 387.496094 214.625 Z M 387.484375 214.625 " fill-opacity="1" fill-rule="nonzero"/><path fill="#ffffff" d="M 374.144531 238.917969 C 379.074219 234.734375 380.265625 229.972656 380.265625 229.972656 C 380.265625 229.972656 380.292969 234.859375 384.0625 240.136719 C 388.699219 246.65625 389.492188 254.34375 383.597656 259.796875 C 383.597656 259.796875 379.851562 262.992188 376.308594 262.546875 C 372.753906 262.121094 369.90625 258.113281 369.90625 258.113281 C 365.492188 251.390625 368.082031 244.105469 374.152344 238.917969 Z M 374.144531 238.917969 " fill-opacity="1" fill-rule="nonzero"/><path fill="#ffffff" d="M 378.609375 293.308594 C 382.457031 299.011719 387.3125 300.84375 387.3125 300.84375 C 387.3125 300.84375 382.125 300.277344 376.15625 303.621094 C 368.773438 307.726562 360.578125 307.652344 355.53125 300.769531 C 355.53125 300.769531 352.601562 296.433594 353.472656 292.785156 C 354.367188 289.113281 358.925781 286.5625 358.925781 286.5625 C 366.511719 282.691406 373.878906 286.316406 378.613281 293.308594 Z M 378.609375 293.308594 " fill-opacity="1" fill-rule="nonzero"/><path fill="#ffffff" d="M 89.867188 215.324219 C 89.867188 215.324219 96.628906 219.433594 101.917969 223.652344 C 108.539062 228.902344 115.207031 231.382812 120.257812 232.996094 C 122.59375 233.714844 124.871094 234.203125 127.105469 234.679688 C 130.097656 235.320312 133.003906 235.949219 135.789062 237.128906 C 134.367188 229.742188 129.265625 199.105469 136.132812 171.117188 C 136.253906 170.769531 147.660156 135.6875 149.171875 129.523438 L 150.863281 129.863281 C 150.804688 130.0625 147.335938 151.753906 142.675781 172.207031 C 138.164062 192.085938 139.082031 238.761719 156.886719 253.519531 C 175.40625 268.789062 188.574219 278.480469 196.902344 279.546875 L 197.105469 279.546875 L 203.007812 286.957031 L 203.675781 289.40625 C 203.675781 289.40625 202.804688 287.921875 200.671875 287.921875 C 194.25 287.921875 187.65625 292.332031 167.996094 274.882812 L 164.847656 272.109375 C 142.066406 251.800781 130.613281 241.632812 123.496094 240.050781 C 115.761719 238.316406 103.707031 233.996094 88.785156 216.597656 L 85.34375 212.5625 L 89.855469 215.3125 L 89.882812 215.3125 Z M 89.867188 215.324219 " fill-opacity="1" fill-rule="nonzero"/><path fill="#ffffff" d="M 154.671875 268.601562 C 152.863281 265.917969 149.242188 264.152344 146.613281 264.726562 C 145.625 264.945312 144.355469 265.597656 144.0625 267.507812 C 143.859375 268.769531 144.0625 269.839844 144.703125 270.804688 C 146.335938 273.203125 148.5 274.5 150.234375 274.007812 C 151.550781 273.332031 155.660156 273.433594 155.832031 271.394531 C 155.6875 270.40625 155.292969 269.496094 154.691406 268.605469 L 154.667969 268.605469 Z M 154.671875 268.601562 " fill-opacity="1" fill-rule="nonzero"/><path fill="#ffffff" d="M 160.125 278.410156 C 160.625 278.953125 162.207031 280.320312 163.378906 280.042969 C 163.773438 279.917969 164.765625 279.59375 165.242188 278.480469 C 165.78125 277.164062 165.511719 275.332031 164.351562 273.105469 C 164.175781 272.753906 163.976562 272.453125 163.800781 272.179688 C 162.828125 270.769531 161.722656 270 160.503906 270 C 159.285156 270 158.09375 270.742188 157.234375 271.9375 C 157.402344 272.804688 158.054688 275.53125 159.363281 277.464844 C 159.585938 277.808594 159.835938 278.132812 160.105469 278.410156 L 160.128906 278.410156 Z M 160.125 278.410156 " fill-opacity="1" fill-rule="nonzero"/><path fill="#ffffff" d="M 157.183594 291.125 C 157.550781 291.652344 158.054688 292.039062 158.695312 292.320312 C 161.03125 293.234375 162.414062 293.460938 163.304688 293.035156 C 164.097656 292.6875 164.683594 291.777344 165.285156 290.035156 C 165.707031 288.75 165.0625 286.746094 163.375 284.242188 C 162.359375 282.746094 161.191406 281.417969 160.5 280.613281 C 160 281.707031 158.992188 283.4375 157.394531 284.5625 C 157.078125 285.375 155.757812 289.027344 157.179688 291.15625 L 157.179688 291.132812 Z M 157.183594 291.125 " fill-opacity="1" fill-rule="nonzero"/><path fill="#ffffff" d="M 150.976562 281.183594 C 152.421875 283.394531 155.195312 284.085938 157.15625 282.746094 C 159.109375 281.488281 159.507812 278.664062 158.046875 276.503906 C 156.582031 274.320312 153.859375 273.628906 151.894531 274.9375 C 149.933594 276.207031 149.566406 279.007812 151 281.191406 L 150.976562 281.191406 Z M 150.976562 281.183594 " fill-opacity="1" fill-rule="nonzero"/><path fill="#ffffff" d="M 149.910156 281.902344 C 148.5 279.867188 148.472656 277.339844 149.617188 275.507812 C 147.09375 276.074219 143.390625 277.445312 143.246094 280.8125 C 143.199219 281.335938 143.324219 281.777344 143.589844 282.199219 C 144.886719 284.136719 149.367188 284.378906 152.742188 284.238281 C 151.648438 283.761719 150.636719 282.96875 149.914062 281.902344 Z M 149.910156 281.902344 " fill-opacity="1" fill-rule="nonzero"/><path fill="#ffffff" d="M 150.339844 276.964844 C 149.890625 278.285156 150.085938 279.867188 150.980469 281.183594 C 151.925781 282.644531 153.492188 283.4375 155.003906 283.417969 C 153.710938 282.621094 152.003906 281.433594 151.035156 279.96875 C 150.371094 278.953125 150.140625 277.957031 150.34375 276.964844 Z M 150.339844 276.964844 " fill-opacity="1" fill-rule="nonzero"/><path fill="#ffffff" d="M 132.085938 171.070312 C 132.886719 168.390625 132.035156 165.015625 130.230469 163.605469 C 129.535156 163.066406 128.414062 162.589844 126.980469 163.460938 C 126.039062 164.011719 125.441406 164.753906 125.171875 165.695312 C 124.453125 168.144531 124.808594 170.277344 126.085938 171.148438 C 127.253906 171.636719 129.433594 174.445312 130.898438 173.40625 C 131.441406 172.753906 131.863281 171.992188 132.109375 171.097656 L 132.082031 171.070312 Z M 132.085938 171.070312 " fill-opacity="1" fill-rule="nonzero"/><path fill="#ffffff" d="M 128.589844 180.09375 C 128.488281 180.746094 128.464844 182.546875 129.316406 183.164062 C 129.609375 183.367188 130.359375 183.808594 131.371094 183.519531 C 132.5625 183.195312 133.628906 181.953125 134.421875 179.941406 C 134.550781 179.648438 134.648438 179.375 134.746094 179.070312 C 135.140625 177.660156 134.988281 176.472656 134.347656 175.707031 C 133.703125 174.9375 132.539062 174.511719 131.253906 174.589844 C 130.777344 175.191406 129.34375 177.125 128.765625 179.078125 C 128.644531 179.449219 128.570312 179.777344 128.570312 180.09375 L 128.59375 180.09375 Z M 128.589844 180.09375 " fill-opacity="1" fill-rule="nonzero"/><path fill="#ffffff" d="M 118.550781 185.203125 C 118.398438 185.71875 118.398438 186.269531 118.601562 186.859375 C 119.269531 188.921875 119.886719 189.9375 120.660156 190.300781 C 121.328125 190.597656 122.246094 190.503906 123.726562 189.933594 C 124.820312 189.53125 125.785156 187.945312 126.527344 185.472656 C 126.953125 183.957031 127.226562 182.472656 127.332031 181.558594 C 126.332031 181.800781 124.621094 182.097656 123.035156 181.703125 C 122.316406 181.921875 119.171875 183.089844 118.578125 185.195312 L 118.550781 185.195312 Z M 118.550781 185.203125 " fill-opacity="1" fill-rule="nonzero"/><path fill="#ffffff" d="M 121.726562 175.605469 C 121.074219 177.761719 122.140625 179.964844 124.050781 180.566406 C 125.988281 181.109375 128.042969 179.8125 128.691406 177.667969 C 129.3125 175.484375 128.269531 173.28125 126.332031 172.679688 C 124.429688 172.136719 122.347656 173.421875 121.726562 175.578125 Z M 121.726562 175.605469 " fill-opacity="1" fill-rule="nonzero"/><path fill="#ffffff" d="M 120.660156 175.28125 C 121.25 173.253906 122.863281 171.839844 124.726562 171.546875 C 122.957031 170.175781 120.03125 168.492188 117.707031 170.253906 C 117.332031 170.503906 117.089844 170.867188 116.988281 171.242188 C 116.414062 173.203125 118.722656 176.269531 120.683594 178.453125 C 120.386719 177.464844 120.355469 176.371094 120.683594 175.28125 Z M 120.660156 175.28125 " fill-opacity="1" fill-rule="nonzero"/><path fill="#ffffff" d="M 124.15625 172.828125 C 123.039062 173.28125 122.121094 174.265625 121.746094 175.578125 C 121.332031 177.042969 121.65625 178.480469 122.5 179.476562 C 122.296875 178.21875 122.144531 176.398438 122.601562 174.960938 C 122.894531 173.945312 123.4375 173.230469 124.183594 172.855469 Z M 124.15625 172.828125 " fill-opacity="1" fill-rule="nonzero"/><path fill="#ffffff" d="M 135.839844 120.894531 C 135.238281 119.550781 136.734375 120.132812 136.453125 118.511719 C 136.378906 117.945312 136.328125 117.402344 136.277344 116.800781 C 136.203125 115.609375 134.894531 114.851562 135.085938 113.480469 C 135.136719 113.109375 136.550781 112.214844 136.652344 111.839844 C 136.894531 110.402344 136.226562 108.027344 136.84375 106.460938 C 137.140625 105.746094 138.5625 105.84375 138.902344 105.078125 C 139.351562 104.1875 140.367188 103.097656 140.9375 102.101562 C 141.902344 102.71875 142.773438 103.292969 143.613281 103.859375 C 144.277344 104.359375 145.496094 103.589844 146.089844 104.082031 C 147.382812 105.171875 147.910156 107.546875 148.839844 108.691406 C 149.089844 108.988281 150.800781 109.109375 150.972656 109.382812 C 151.789062 110.5 150.996094 111.769531 151.488281 112.875 C 151.765625 113.402344 151.988281 113.917969 152.164062 114.441406 C 152.703125 115.980469 153.726562 114.785156 153.847656 116.25 C 153.898438 116.816406 153.207031 120.046875 153.207031 120.585938 C 153.179688 122.398438 154.660156 122.007812 154.246094 123.566406 C 154.09375 124.128906 152.191406 126.808594 151.988281 127.308594 C 151.421875 128.96875 152.828125 129.492188 152.210938 130.578125 C 151.371094 132.09375 148.640625 133.855469 148.640625 133.855469 C 148.640625 133.855469 145.386719 133.632812 143.957031 132.660156 C 142.914062 132.019531 143.878906 130.851562 142.609375 129.683594 C 142.191406 129.289062 139.238281 127.875 138.839844 127.457031 C 137.722656 126.289062 139.238281 125.914062 138.375 124.328125 C 138.121094 123.863281 135.964844 121.324219 135.746094 120.808594 L 135.824219 120.878906 Z M 135.839844 120.894531 " fill-opacity="1" fill-rule="nonzero"/><path fill="#ffffff" d="M 111.855469 149.976562 C 109.992188 148.535156 112.46875 148.191406 110.886719 146.105469 C 110.371094 145.382812 109.851562 144.613281 109.378906 143.847656 C 108.335938 142.1875 105.933594 142.136719 105.15625 140.050781 C 104.964844 139.535156 106.273438 137.148438 106.082031 136.582031 C 105.382812 134.347656 102.605469 131.542969 102.253906 128.847656 C 102.089844 127.613281 104.222656 126.664062 104.164062 125.328125 C 104.074219 123.695312 104.691406 121.386719 104.742188 119.601562 C 106.527344 119.671875 108.261719 119.851562 109.871094 120.050781 C 111.191406 120.21875 112.328125 118.191406 113.515625 118.433594 C 116.195312 119.011719 118.804688 121.988281 120.933594 122.851562 C 121.507812 123.078125 123.984375 121.960938 124.535156 122.199219 C 126.523438 123.113281 126.371094 125.550781 127.957031 126.664062 C 128.699219 127.265625 129.417969 127.828125 130.066406 128.40625 C 132.042969 130.140625 132.542969 127.664062 133.863281 129.648438 C 134.355469 130.367188 135.847656 135.464844 136.238281 136.210938 C 137.628906 138.796875 139.417969 137.132812 140.035156 139.609375 C 140.253906 140.523438 139.582031 145.730469 139.734375 146.621094 C 140.210938 149.347656 142.585938 149.054688 142.585938 151.007812 C 142.585938 153.808594 140.035156 158.339844 140.035156 158.339844 C 140.035156 158.339844 135.324219 160.523438 132.546875 160.328125 C 130.5625 160.210938 131.042969 157.824219 128.386719 157.15625 C 127.492188 156.933594 122.257812 157.234375 121.339844 156.90625 C 118.890625 156.089844 120.699219 154.429688 118.261719 152.898438 C 117.546875 152.421875 112.5625 150.535156 111.894531 149.996094 L 111.871094 149.972656 Z M 111.855469 149.976562 " fill-opacity="1" fill-rule="nonzero"/><path fill="#ffffff" d="M 156.683594 134.773438 C 157.953125 133.785156 157.722656 135.464844 159.414062 134.773438 C 159.988281 134.578125 160.554688 134.308594 161.171875 134.132812 C 162.464844 133.734375 162.886719 132.121094 164.375 131.921875 C 164.769531 131.875 166.136719 133.140625 166.558594 133.117188 C 168.148438 132.988281 170.445312 131.625 172.308594 131.824219 C 173.15625 131.949219 173.421875 133.503906 174.320312 133.65625 C 175.410156 133.882812 176.855469 134.648438 178.039062 135 C 177.695312 136.183594 177.296875 137.300781 176.894531 138.347656 C 176.578125 139.214844 177.746094 140.28125 177.371094 141.019531 C 176.558594 142.734375 174.171875 143.972656 173.203125 145.265625 C 172.980469 145.585938 173.300781 147.394531 173.035156 147.71875 C 172.121094 148.933594 170.523438 148.382812 169.480469 149.277344 C 168.992188 149.703125 168.515625 150.082031 167.996094 150.421875 C 166.527344 151.441406 168.070312 152.203125 166.558594 152.730469 C 165.957031 152.921875 162.339844 153.097656 161.773438 153.246094 C 159.835938 153.746094 160.65625 155.207031 158.898438 155.207031 C 158.246094 155.207031 154.878906 153.914062 154.289062 153.886719 C 152.425781 153.746094 152.203125 155.378906 150.886719 155.082031 C 149.023438 154.617188 146.449219 152.179688 146.449219 152.179688 C 146.449219 152.179688 145.78125 148.660156 146.371094 146.851562 C 146.796875 145.570312 148.277344 146.261719 149.171875 144.59375 C 149.46875 144.054688 150.136719 140.535156 150.484375 139.960938 C 151.457031 138.472656 152.246094 139.960938 153.679688 138.574219 C 154.105469 138.175781 156.191406 135.171875 156.683594 134.777344 Z M 156.683594 134.773438 " fill-opacity="1" fill-rule="nonzero"/><path fill="#ffffff" d="M 148.652344 168.933594 C 150.164062 167.351562 150.214844 169.675781 152.296875 168.441406 C 153.011719 168.019531 153.75 167.628906 154.519531 167.226562 C 156.164062 166.460938 156.457031 164.222656 158.410156 163.734375 C 158.9375 163.585938 160.964844 165.050781 161.539062 164.925781 C 163.671875 164.5 166.519531 162.222656 169.054688 162.171875 C 170.199219 162.144531 170.867188 164.171875 172.109375 164.273438 C 173.617188 164.347656 175.652344 165.144531 177.3125 165.363281 C 177.039062 167.03125 176.734375 168.5625 176.371094 170.050781 C 176.117188 171.242188 177.828125 172.460938 177.488281 173.566406 C 176.722656 175.976562 173.691406 178.085938 172.699219 179.996094 C 172.429688 180.460938 173.226562 182.871094 172.953125 183.335938 C 171.886719 185.09375 169.679688 184.730469 168.460938 186.066406 C 167.867188 186.683594 167.277344 187.285156 166.652344 187.851562 C 164.867188 189.480469 167.074219 190.210938 165.144531 191.195312 C 164.425781 191.59375 159.5625 192.433594 158.847656 192.738281 C 156.34375 193.757812 157.679688 195.585938 155.328125 195.90625 C 154.453125 196.03125 149.75 194.890625 148.902344 194.945312 C 146.324219 195.113281 146.375 197.320312 144.542969 197.125 C 142.015625 196.847656 138.046875 194.054688 138.046875 194.054688 C 138.046875 194.054688 136.539062 189.460938 137.003906 186.933594 C 137.359375 185.152344 139.492188 185.816406 140.382812 183.390625 C 140.675781 182.625 140.921875 177.738281 141.328125 176.921875 C 142.316406 174.738281 143.652344 176.574219 145.339844 174.460938 C 145.816406 173.84375 148.089844 169.464844 148.667969 168.894531 L 148.667969 168.933594 Z M 148.652344 168.933594 " fill-opacity="1" fill-rule="nonzero"/><path fill="#ffffff" d="M 148.472656 206.292969 C 149.515625 205.230469 149.515625 206.816406 150.976562 205.972656 C 151.476562 205.675781 151.996094 205.371094 152.519531 205.109375 C 153.625 204.582031 153.828125 203.046875 155.195312 202.699219 C 155.566406 202.597656 156.957031 203.613281 157.320312 203.539062 C 158.785156 203.265625 160.773438 201.675781 162.503906 201.652344 C 163.324219 201.625 163.765625 203.042969 164.617188 203.09375 C 165.660156 203.144531 167.070312 203.683594 168.210938 203.859375 C 168.035156 204.96875 167.8125 206.058594 167.558594 207.105469 C 167.367188 207.945312 168.5625 208.773438 168.332031 209.515625 C 167.757812 211.171875 165.699219 212.609375 165.007812 213.921875 C 164.804688 214.246094 165.355469 215.910156 165.15625 216.222656 C 164.4375 217.441406 162.925781 217.171875 162.078125 218.0625 C 161.660156 218.53125 161.261719 218.929688 160.84375 219.320312 C 159.605469 220.4375 161.109375 220.914062 159.800781 221.605469 C 159.300781 221.878906 155.960938 222.46875 155.460938 222.671875 C 153.75 223.390625 154.691406 224.632812 153.085938 224.847656 C 152.441406 224.949219 149.191406 224.15625 148.671875 224.183594 C 146.886719 224.285156 146.886719 225.839844 145.644531 225.6875 C 143.886719 225.496094 141.1875 223.566406 141.1875 223.566406 C 141.1875 223.566406 140.144531 220.414062 140.457031 218.652344 C 140.679688 217.433594 142.152344 217.886719 142.769531 216.253906 C 142.96875 215.726562 143.167969 212.382812 143.433594 211.804688 C 144.113281 210.300781 145.042969 211.558594 146.210938 210.121094 C 146.558594 209.699219 148.121094 206.679688 148.496094 206.277344 L 148.46875 206.277344 Z M 148.472656 206.292969 " fill-opacity="1" fill-rule="nonzero"/><path fill="#ffffff" d="M 157.648438 248.859375 C 157.058594 247.089844 158.839844 247.972656 158.691406 245.960938 C 158.640625 245.230469 158.640625 244.515625 158.691406 243.769531 C 158.714844 242.238281 157.179688 241.195312 157.546875 239.511719 C 157.648438 239.0625 159.558594 238.089844 159.679688 237.652344 C 160.195312 235.890625 159.609375 232.863281 160.550781 230.953125 C 160.96875 230.085938 162.808594 230.386719 163.328125 229.488281 C 163.972656 228.371094 165.367188 227.164062 166.179688 226.023438 C 167.347656 226.859375 168.378906 227.703125 169.351562 228.550781 C 170.125 229.222656 171.761719 228.40625 172.429688 229.074219 C 173.933594 230.605469 174.339844 233.683594 175.378906 235.195312 C 175.628906 235.59375 177.765625 235.914062 177.976562 236.3125 C 178.894531 237.800781 177.761719 239.289062 178.277344 240.722656 C 178.554688 241.425781 178.746094 242.113281 178.941406 242.785156 C 179.46875 244.765625 180.90625 243.402344 180.878906 245.238281 C 180.878906 245.964844 179.671875 249.921875 179.566406 250.597656 C 179.398438 252.824219 181.285156 252.558594 180.582031 254.433594 C 180.363281 255.164062 177.628906 258.234375 177.359375 258.878906 C 176.472656 260.863281 178.15625 261.703125 177.285156 262.972656 C 176.066406 264.769531 172.421875 266.628906 172.421875 266.628906 C 172.421875 266.628906 168.410156 265.988281 166.671875 264.644531 C 165.4375 263.679688 166.773438 262.371094 165.285156 260.78125 C 164.8125 260.230469 161.265625 258.15625 160.828125 257.53125 C 159.585938 255.949219 161.46875 255.648438 160.550781 253.570312 C 160.25 252.949219 157.851562 249.578125 157.625 248.910156 Z M 157.648438 248.859375 " fill-opacity="1" fill-rule="nonzero"/><path fill="#ffffff" d="M 103.652344 215.246094 C 102.882812 213.363281 104.867188 214.207031 104.617188 211.972656 C 104.515625 211.230469 104.46875 210.441406 104.4375 209.621094 C 104.386719 207.953125 102.628906 206.871094 102.953125 205.039062 C 103.027344 204.539062 105.035156 203.34375 105.132812 202.851562 C 105.582031 200.890625 104.738281 197.625 105.65625 195.464844 C 106.082031 194.5 108.03125 194.699219 108.558594 193.683594 C 109.199219 192.414062 110.636719 190.984375 111.460938 189.714844 C 112.742188 190.554688 113.960938 191.371094 115.054688 192.242188 C 115.96875 192.96875 117.652344 191.921875 118.449219 192.617188 C 120.183594 194.175781 120.8125 197.527344 122.019531 199.113281 C 122.34375 199.503906 124.652344 199.757812 124.945312 200.15625 C 125.988281 201.691406 124.84375 203.425781 125.546875 204.941406 C 125.867188 205.683594 126.136719 206.429688 126.359375 207.144531 C 127.078125 209.277344 128.515625 207.722656 128.640625 209.703125 C 128.691406 210.445312 127.574219 214.878906 127.574219 215.621094 C 127.496094 218.101562 129.535156 217.628906 128.917969 219.765625 C 128.695312 220.535156 125.941406 224.101562 125.667969 224.820312 C 124.828125 227.054688 126.734375 227.871094 125.871094 229.3125 C 124.664062 231.339844 120.816406 233.621094 120.816406 233.621094 C 120.816406 233.621094 116.371094 233.171875 114.445312 231.839844 C 113.027344 230.875 114.394531 229.328125 112.703125 227.667969 C 112.1875 227.128906 108.195312 225.09375 107.652344 224.476562 C 106.207031 222.792969 108.246094 222.34375 107.128906 220.113281 C 106.808594 219.460938 103.933594 215.917969 103.6875 215.226562 L 103.660156 215.253906 Z M 103.652344 215.246094 " fill-opacity="1" fill-rule="nonzero"/><path fill="#ffffff" d="M 184.675781 304.878906 C 183.167969 305.402344 183.910156 303.863281 182.121094 303.988281 C 181.53125 304.039062 180.90625 304.0625 180.261719 304.039062 C 178.917969 304.011719 178.027344 305.410156 176.566406 305.058594 C 176.195312 304.957031 175.324219 303.328125 174.933594 303.226562 C 173.394531 302.8125 170.765625 303.351562 169.132812 302.539062 C 168.371094 302.164062 168.605469 300.601562 167.84375 300.164062 C 166.871094 299.585938 165.78125 298.394531 164.800781 297.675781 C 165.519531 296.683594 166.234375 295.765625 166.980469 294.925781 C 167.570312 294.257812 166.828125 292.84375 167.402344 292.222656 C 168.710938 290.902344 171.339844 290.539062 172.65625 289.59375 C 173.003906 289.398438 173.273438 287.539062 173.601562 287.335938 C 174.839844 286.542969 176.179688 287.511719 177.421875 287.015625 C 178.011719 286.796875 178.605469 286.59375 179.179688 286.441406 C 180.890625 285.949219 179.679688 284.734375 181.261719 284.734375 C 181.878906 284.734375 185.347656 285.75 185.898438 285.800781 C 187.859375 285.949219 187.582031 284.3125 189.21875 284.882812 C 189.847656 285.113281 192.546875 287.410156 193.117188 287.660156 C 194.824219 288.402344 195.527344 286.941406 196.683594 287.660156 C 198.25 288.699219 199.882812 291.820312 199.882812 291.820312 C 199.882812 291.820312 199.367188 295.347656 198.214844 296.851562 C 197.382812 297.917969 196.238281 296.777344 194.871094 298.042969 C 194.429688 298.460938 192.621094 301.5625 192.121094 301.988281 C 190.75 303.074219 190.460938 301.410156 188.679688 302.230469 C 188.152344 302.453125 185.234375 304.613281 184.660156 304.8125 L 184.683594 304.878906 Z M 184.675781 304.878906 " fill-opacity="1" fill-rule="nonzero"/><path fill="#ffffff" d="M 82.128906 207.710938 C 81.65625 206.671875 82.824219 207.089844 82.628906 205.800781 C 82.558594 205.351562 82.527344 204.910156 82.480469 204.457031 C 82.429688 203.492188 81.390625 202.902344 81.535156 201.859375 C 81.585938 201.535156 82.699219 200.84375 82.769531 200.539062 C 82.972656 199.40625 82.429688 197.523438 82.945312 196.304688 C 83.175781 195.714844 84.316406 195.839844 84.613281 195.214844 C 84.957031 194.496094 85.746094 193.632812 86.195312 192.863281 C 86.964844 193.304688 87.65625 193.796875 88.324219 194.273438 C 88.851562 194.671875 89.816406 194.054688 90.285156 194.425781 C 91.300781 195.292969 91.707031 197.199219 92.445312 198.09375 C 92.648438 198.296875 93.980469 198.417969 94.15625 198.660156 C 94.800781 199.535156 94.15625 200.546875 94.582031 201.410156 C 94.78125 201.835938 94.953125 202.257812 95.097656 202.679688 C 95.546875 203.894531 96.339844 202.929688 96.441406 204.089844 C 96.492188 204.539062 95.941406 207.089844 95.917969 207.488281 C 95.917969 208.929688 97.085938 208.632812 96.757812 209.898438 C 96.628906 210.320312 95.125 212.402344 94.972656 212.847656 C 94.53125 214.113281 95.648438 214.558594 95.175781 215.398438 C 94.507812 216.617188 92.324219 217.984375 92.324219 217.984375 C 92.324219 217.984375 89.769531 217.835938 88.601562 217.070312 C 87.785156 216.546875 88.527344 215.632812 87.5625 214.738281 C 87.222656 214.386719 84.90625 213.28125 84.585938 212.925781 C 83.726562 212.007812 84.882812 211.710938 84.214844 210.449219 C 83.988281 210.078125 82.28125 208.089844 82.132812 207.703125 L 82.132812 207.726562 Z M 82.128906 207.710938 " fill-opacity="1" fill-rule="nonzero"/><g clip-path="url(#cdeb164b93)"><path fill="#ffffff" d="M 80.445312 231.429688 C 78.953125 231.726562 79.878906 230.394531 78.183594 230.246094 C 77.621094 230.195312 77.019531 230.121094 76.425781 230.023438 C 75.21875 229.824219 74.125 230.964844 72.808594 230.4375 C 72.464844 230.324219 71.863281 228.679688 71.523438 228.503906 C 70.160156 227.886719 67.605469 228.011719 66.136719 227.023438 C 65.46875 226.574219 65.914062 225.1875 65.246094 224.648438 C 64.425781 223.996094 63.589844 222.738281 62.742188 221.914062 C 63.558594 221.09375 64.375 220.351562 65.144531 219.660156 C 65.816406 219.09375 65.292969 217.699219 65.957031 217.203125 C 67.378906 216.191406 69.90625 216.21875 71.269531 215.546875 C 71.613281 215.394531 72.140625 213.734375 72.480469 213.558594 C 73.796875 212.992188 74.890625 214.109375 76.125 213.855469 C 76.746094 213.730469 77.316406 213.636719 77.890625 213.558594 C 79.550781 213.367188 78.609375 212.074219 80.089844 212.300781 C 80.667969 212.402344 83.785156 213.835938 84.285156 213.984375 C 86.121094 214.40625 86.097656 212.839844 87.558594 213.609375 C 88.109375 213.886719 90.332031 216.433594 90.808594 216.738281 C 92.316406 217.652344 93.207031 216.390625 94.152344 217.253906 C 95.46875 218.421875 96.609375 221.570312 96.609375 221.570312 C 96.609375 221.570312 95.617188 224.773438 94.324219 226.007812 C 93.410156 226.875 92.464844 225.632812 90.980469 226.648438 C 90.503906 226.996094 88.375 229.574219 87.851562 229.902344 C 86.410156 230.71875 86.363281 229.1875 84.574219 229.652344 C 84.058594 229.796875 80.980469 231.367188 80.441406 231.460938 L 80.441406 231.433594 Z M 80.445312 231.429688 " fill-opacity="1" fill-rule="nonzero"/></g><path fill="#ffffff" d="M 124.945312 262.648438 C 123.289062 263.238281 124.101562 261.53125 122.171875 261.675781 C 121.503906 261.726562 120.835938 261.753906 120.113281 261.753906 C 118.675781 261.703125 117.660156 263.214844 116.101562 262.859375 C 115.675781 262.789062 114.710938 261.035156 114.289062 260.882812 C 112.621094 260.460938 109.746094 261.035156 107.9375 260.164062 C 107.097656 259.765625 107.371094 258.082031 106.5 257.578125 C 105.460938 256.960938 104.265625 255.667969 103.179688 254.949219 C 103.972656 253.832031 104.765625 252.867188 105.554688 251.921875 C 106.199219 251.15625 105.378906 249.644531 106.046875 249.023438 C 107.464844 247.585938 110.363281 247.164062 111.796875 246.171875 C 112.171875 245.929688 112.464844 243.949219 112.8125 243.695312 C 114.234375 242.824219 115.640625 243.890625 117.007812 243.371094 C 117.652344 243.15625 118.292969 242.902344 118.972656 242.730469 C 120.832031 242.214844 119.511719 240.894531 121.246094 240.871094 C 121.921875 240.871094 125.6875 241.960938 126.332031 242.011719 C 128.476562 242.1875 128.164062 240.421875 129.976562 241.046875 C 130.667969 241.269531 133.617188 243.75 134.210938 244.023438 C 136.121094 244.816406 136.910156 243.230469 138.128906 244.023438 C 139.863281 245.117188 141.644531 248.511719 141.644531 248.511719 C 141.644531 248.511719 141.078125 252.308594 139.835938 253.964844 C 138.941406 255.15625 137.652344 253.894531 136.167969 255.285156 C 135.675781 255.699219 133.691406 259.09375 133.140625 259.519531 C 131.605469 260.710938 131.328125 258.929688 129.378906 259.84375 C 128.777344 260.09375 125.558594 262.445312 124.960938 262.648438 L 124.933594 262.648438 Z M 124.945312 262.648438 " fill-opacity="1" fill-rule="nonzero"/><g transform="matrix(1, 0, 0, 1, 713, 40)"><g clip-path="url(#616804d6fd)"><g fill="#ffffff" fill-opacity="1"><g transform="translate(1.745037, 249.511655)"><g><path d="M 139.109375 -13.625 C 132.734375 -9.164062 125.003906 -5.222656 115.921875 -1.796875 C 106.835938 1.628906 96.160156 3.34375 83.890625 3.34375 C 60.148438 3.34375 42.066406 -2.46875 29.640625 -14.09375 C 17.210938 -25.726562 11 -41.828125 11 -62.390625 L 11 -108.75 C 11 -129.144531 17.367188 -145.160156 30.109375 -156.796875 C 42.859375 -168.429688 60.785156 -174.25 83.890625 -174.25 C 93.773438 -174.25 103.140625 -172.929688 111.984375 -170.296875 C 120.828125 -167.671875 128.515625 -164.125 135.046875 -159.65625 C 137.753906 -157.90625 138.148438 -155.753906 136.234375 -153.203125 L 117.828125 -124.765625 C 116.234375 -122.210938 114.003906 -121.734375 111.140625 -123.328125 C 103.648438 -127.796875 95.125 -130.03125 85.5625 -130.03125 C 76.800781 -130.03125 70.109375 -127.757812 65.484375 -123.21875 C 60.867188 -118.675781 58.5625 -112.976562 58.5625 -106.125 L 58.5625 -65.25 C 58.5625 -57.445312 60.867188 -51.429688 65.484375 -47.203125 C 70.109375 -42.984375 76.484375 -40.875 84.609375 -40.875 C 90.023438 -40.875 95.242188 -41.585938 100.265625 -43.015625 C 105.285156 -44.453125 109.785156 -46.445312 113.765625 -49 C 116.472656 -50.75 118.625 -50.347656 120.21875 -47.796875 L 138.875 -19.359375 C 140.78125 -16.804688 140.859375 -14.894531 139.109375 -13.625 Z M 139.109375 -13.625 "/></g></g></g><g fill="#ffffff" fill-opacity="1"><g transform="translate(151.356086, 249.511655)"><g><path d="M 144.359375 -21.515625 C 136.554688 -13.859375 127.15625 -7.800781 116.15625 -3.34375 C 105.164062 1.113281 93.773438 3.34375 81.984375 3.34375 C 59.359375 3.34375 41.867188 -2.507812 29.515625 -14.21875 C 17.171875 -25.9375 11 -42.148438 11 -62.859375 L 11 -108.984375 C 11 -129.378906 17.289062 -145.351562 29.875 -156.90625 C 42.46875 -168.46875 60.15625 -174.25 82.9375 -174.25 C 93.289062 -174.25 103.523438 -172.890625 113.640625 -170.171875 C 123.765625 -167.460938 132.734375 -163.722656 140.546875 -158.953125 C 143.253906 -157.191406 143.648438 -154.957031 141.734375 -152.25 L 121.890625 -123.8125 C 120.296875 -121.257812 118.144531 -120.859375 115.4375 -122.609375 C 106.832031 -127.554688 96 -130.03125 82.9375 -130.03125 C 74.8125 -130.03125 68.71875 -127.992188 64.65625 -123.921875 C 60.59375 -119.859375 58.5625 -114.320312 58.5625 -107.3125 L 58.5625 -64.53125 C 58.5625 -57.207031 60.507812 -51.472656 64.40625 -47.328125 C 68.3125 -43.179688 74.171875 -41.109375 81.984375 -41.109375 C 89.316406 -41.109375 96.164062 -42.460938 102.53125 -45.171875 L 102.53125 -65.015625 L 82.703125 -65.015625 C 79.515625 -65.015625 77.921875 -66.609375 77.921875 -69.796875 L 77.921875 -97.28125 C 77.921875 -100.46875 79.515625 -102.0625 82.703125 -102.0625 L 141.734375 -102.0625 C 144.921875 -102.0625 146.515625 -100.46875 146.515625 -97.28125 L 146.515625 -27.015625 C 146.515625 -24.773438 145.796875 -22.941406 144.359375 -21.515625 Z M 144.359375 -21.515625 "/></g></g></g><g fill="#ffffff" fill-opacity="1"><g transform="translate(315.784778, 249.511655)"><g><path d="M 62.625 -41.828125 L 128.59375 -41.828125 C 131.78125 -41.828125 133.375 -40.234375 133.375 -37.046875 L 133.375 -4.78125 C 133.375 -1.59375 131.78125 0 128.59375 0 L 20.796875 0 C 17.609375 0 16.015625 -1.59375 16.015625 -4.78125 L 16.015625 -166.109375 C 16.015625 -169.296875 17.609375 -170.890625 20.796875 -170.890625 L 124.53125 -170.890625 C 127.71875 -170.890625 129.3125 -169.296875 129.3125 -166.109375 L 129.3125 -133.84375 C 129.3125 -130.65625 127.71875 -129.0625 124.53125 -129.0625 L 62.625 -129.0625 L 62.625 -106.84375 L 115.203125 -106.84375 C 118.390625 -106.84375 119.984375 -105.25 119.984375 -102.0625 L 119.984375 -70.75 C 119.984375 -67.5625 118.390625 -65.96875 115.203125 -65.96875 L 62.625 -65.96875 Z M 62.625 -41.828125 "/></g></g></g></g></g></svg>